<svg width="1945" height="708" viewBox="0 0 1945 708" fill="none" xmlns="http://www.w3.org/2000/svg">
<path d="M697.857 493.581L693.78 569.869L668.423 532.394L647.535 511.419L631.062 494.776L610.066 478.29L588.225 461.227L561.092 443.093L539.354 424.603L520.462 407.173L504.949 387.757L494.574 366.136L483.643 345.177L471.388 313.957L463.933 290.619L459.064 275.377L469.919 279.783L489.342 294.574L517.125 310.893L547.463 325.347L582.979 342.869L616.419 362.106L641.517 378.233L660.748 395.71L679.638 416.238L691.406 438.309L696.576 464.79L697.857 493.581Z" fill="url(#paint0_radial)"/>
<path d="M227.32 326.999L156.824 356.443L179.578 317.331L189.407 289.409L197.249 267.344L202.986 241.273L208.877 214.191L213.435 181.876L220.655 154.266L228.158 129.681L238.915 107.277L253.889 88.5452L268.024 69.5995L290.831 45.0076L308.619 28.1602L320.236 17.1579L320.979 28.8496L316.085 52.7672L313.445 84.8807L313.593 118.485L313.225 158.087L310.411 196.562L306.777 226.173L299.381 251.084L289.088 277.012L274.313 297.195L252.701 313.347L227.32 326.999Z" fill="url(#paint1_radial)"/>
<path d="M402.337 531.568L460.55 581.042L415.373 578.502L386.03 582.406L362.809 585.424L336.971 592.136L310.163 599.168L279.295 609.762L251.414 615.849L226.1 620.313L201.254 620.888L177.768 616.037L154.472 612.032L122.211 602.86L99.1285 594.647L84.0542 589.284L94.1371 583.319L117.673 576.833L147.491 564.621L177.373 549.248L212.835 531.615L248.402 516.673L276.44 506.481L301.996 501.775L329.772 499.19L354.461 503.203L378.659 515.139L402.337 531.568Z" fill="url(#paint2_radial)"/>
<path d="M499.06 89.5331L355.663 14.8099L344.703 45.0899L336.523 73.0735L330.946 106.821L330.65 143.041L333.937 179.898L342.403 218.234L353.89 251.734L368.896 280.349L385.431 304.283L403.445 323.039L425.246 344.421L446.434 359.834L464.828 372.519L487.164 389.323L484.305 381.072L472.005 359.215L461.35 338.698L453.884 319.863L449.593 297.685L448.974 272.114L451.479 242.704L457.019 213.484L464.051 184.111L472.984 158.563L486.519 123.997L499.06 89.5331Z" fill="url(#paint3_linear)" stroke="url(#paint4_radial)"/>
<path d="M525.959 651.07L669.366 576.368L650.83 550.035L632.584 527.296L608.122 503.388L578.607 482.39L546.518 463.965L510.249 448.936L476.211 439.154L444.162 435.055L415.072 434.892L389.379 438.907L359.362 444.523L334.59 453.055L313.654 460.861L287.084 469.538L295.484 471.923L320.444 474.366L343.365 477.391L363.079 482.065L383.713 491.256L405.025 505.401L427.693 524.307L448.465 545.59L468.509 568.185L484.327 590.146L504.9 621.045L525.959 651.07Z" fill="url(#paint5_linear)" stroke="url(#paint6_radial)"/>
<path d="M70.4003 402.116L85.5174 563.105L116.896 555.866L144.836 547.54L176.204 533.898L206.78 514.479L235.945 491.705L263.539 463.78L285.433 435.943L301.314 407.804L312.433 380.923L318.402 355.612L324.518 325.694L325.957 299.532L326.62 277.198L328.602 249.318L323.226 256.199L311.552 278.396L300.108 298.484L288.345 314.981L272.053 330.627L250.916 345.032L224.859 358.899L197.314 370.113L168.83 380.158L142.526 386.529L106.15 393.932L70.4003 402.116Z" fill="url(#paint7_linear)" stroke="url(#paint8_radial)"/>
<path d="M1665 463C1665 534.797 1724.32 593 1797.5 593C1870.68 593 1930 534.797 1930 463" stroke="url(#paint9_linear)" stroke-width="5"/>
<circle cx="1664.5" cy="471.5" r="13.5" fill="#008DF9"/>
<circle cx="1929.5" cy="471.5" r="13.5" fill="#008DF9"/>
<path d="M1732.11 504.97H1742.1V556.54H1770.81V565H1732.11V504.97ZM1799.53 518.83C1804.45 518.83 1808.62 520.03 1812.04 522.43C1815.52 524.77 1817.23 528.58 1817.17 533.86V555.46C1817.17 559.54 1815.37 562.39 1811.77 564.01C1808.17 565.57 1803.04 566.35 1796.38 566.35C1791.04 566.35 1786.63 565.24 1783.15 563.02C1779.67 560.8 1777.93 557.08 1777.93 551.86C1777.93 546.94 1779.34 543.25 1782.16 540.79C1785.04 538.33 1789.09 537.1 1794.31 537.1C1799.71 537.1 1804.21 538.18 1807.81 540.34V536.02C1807.81 529.9 1804.12 526.84 1796.74 526.84C1794.1 526.84 1791.46 527.26 1788.82 528.1C1786.18 528.88 1783.99 529.99 1782.25 531.43V522.61C1783.93 521.53 1786.36 520.63 1789.54 519.91C1792.78 519.19 1796.11 518.83 1799.53 518.83ZM1797.46 558.97C1801.24 558.97 1803.91 558.7 1805.47 558.16C1807.03 557.62 1807.81 556.54 1807.81 554.92V546.19C1804.75 544.87 1801.39 544.21 1797.73 544.21C1794.31 544.21 1791.7 544.81 1789.9 546.01C1788.16 547.21 1787.29 549.01 1787.29 551.41C1787.29 553.93 1788.28 555.82 1790.26 557.08C1792.3 558.34 1794.7 558.97 1797.46 558.97ZM1851.51 518.83C1858.23 518.83 1863.33 520.84 1866.81 524.86C1870.29 528.88 1872.03 534.58 1872.03 541.96C1872.03 550.84 1869.93 557.14 1865.73 560.86C1861.59 564.52 1856.31 566.35 1849.89 566.35C1836.99 566.35 1830.54 562.93 1830.54 556.09V501.73H1839.9V521.62C1841.64 520.78 1843.59 520.12 1845.75 519.64C1847.97 519.1 1849.89 518.83 1851.51 518.83ZM1849.17 558.16C1854.09 558.16 1857.51 556.75 1859.43 553.93C1861.41 551.11 1862.4 547.24 1862.4 542.32C1862.4 537.28 1861.35 533.44 1859.25 530.8C1857.21 528.16 1854.15 526.84 1850.07 526.84C1848.39 526.84 1846.62 527.08 1844.76 527.56C1842.96 527.98 1841.34 528.61 1839.9 529.45V553.75C1839.9 556.69 1842.99 558.16 1849.17 558.16Z" fill="#002856"/>
<path d="M1016.88 236.44C1050.65 236.44 1075.67 243.132 1091.92 256.516C1108.17 269.581 1116.3 291.569 1116.3 322.48V485H1045.08V336.82C1045.08 309.096 1029.46 295.234 998.234 295.234C985.169 295.234 974.175 298.261 965.252 304.316C965.889 311.964 966.208 318.019 966.208 322.48V485H894.986V336.82C894.986 309.096 879.371 295.234 848.142 295.234C835.395 295.234 823.605 297.943 812.77 303.36V485H741.548V263.686C753.976 256.994 772.937 250.78 798.43 245.044C823.923 239.308 846.708 236.44 866.784 236.44C898.969 236.44 922.71 242.176 938.006 253.648C950.434 248.231 963.499 244.088 977.202 241.22C991.223 238.033 1004.45 236.44 1016.88 236.44ZM1179.4 268.466C1184.18 264.323 1192.47 259.703 1204.26 254.604C1216.37 249.505 1229.75 245.203 1244.41 241.698C1259.39 237.874 1273.73 235.962 1287.43 235.962C1313.88 235.962 1332.2 239.945 1342.4 247.912V300.014C1329.65 297.146 1311.33 295.712 1287.43 295.712C1272.45 295.712 1260.19 296.509 1250.63 298.102V485H1179.4V268.466ZM1383.86 263.686C1396.29 256.994 1415.25 250.78 1440.74 245.044C1466.24 239.308 1489.02 236.44 1509.1 236.44C1543.19 236.44 1568.85 243.132 1586.05 256.516C1603.26 269.9 1611.87 291.888 1611.87 322.48V485H1540.64V336.82C1540.64 309.096 1525.03 295.234 1493.8 295.234C1486.79 295.234 1479.62 296.031 1472.29 297.624C1464.96 299.217 1459.23 301.129 1455.08 303.36V485H1383.86V263.686ZM1903.15 143.708V421.904C1903.15 436.881 1897.89 449.628 1887.37 460.144C1876.86 470.66 1863 478.627 1845.79 484.044C1828.58 489.461 1810.26 492.17 1790.82 492.17C1749.71 492.17 1717.84 482.451 1695.22 463.012C1672.91 443.573 1661.76 409.954 1661.76 362.154C1661.76 322.002 1671.48 290.932 1690.92 268.944C1710.67 246.637 1739.51 235.484 1777.43 235.484C1800.06 235.484 1818.38 239.627 1832.4 247.912V143.708H1903.15ZM1832.4 302.882C1819.66 296.19 1807.23 292.844 1795.12 292.844C1773.77 292.844 1758.15 298.261 1748.28 309.096C1738.4 319.931 1733.46 338.254 1733.46 364.066C1733.46 386.373 1738.08 403.421 1747.32 415.212C1756.56 426.684 1772.02 432.42 1793.69 432.42C1805.48 432.42 1814.88 430.827 1821.89 427.64C1828.9 424.453 1832.4 419.992 1832.4 414.256V302.882Z" fill="url(#paint10_linear)"/>
<defs>
<radialGradient id="paint0_radial" cx="0" cy="0" r="1" gradientUnits="userSpaceOnUse" gradientTransform="translate(581.578 404.205) rotate(34.4703) scale(121.516 52.8581)">
<stop stop-color="white"/>
<stop offset="1" stop-color="#C3B9B6"/>
</radialGradient>
<radialGradient id="paint1_radial" cx="0" cy="0" r="1" gradientUnits="userSpaceOnUse" gradientTransform="translate(257.361 183.45) rotate(98.7429) scale(121.516 52.8581)">
<stop stop-color="white"/>
<stop offset="1" stop-color="#C3B9B6"/>
</radialGradient>
<radialGradient id="paint2_radial" cx="0" cy="0" r="1" gradientUnits="userSpaceOnUse" gradientTransform="translate(260.776 569.9) rotate(-18.2283) scale(121.516 52.8581)">
<stop stop-color="white"/>
<stop offset="1" stop-color="#C3B9B6"/>
</radialGradient>
<linearGradient id="paint3_linear" x1="407.847" y1="48.1466" x2="427.488" y2="239.139" gradientUnits="userSpaceOnUse">
<stop stop-color="#008DF9"/>
<stop offset="1" stop-color="#00021A"/>
</linearGradient>
<radialGradient id="paint4_radial" cx="0" cy="0" r="1" gradientUnits="userSpaceOnUse" gradientTransform="translate(423.403 201.862) rotate(84.1286) scale(193 86.75)">
<stop stop-color="#00062D"/>
<stop offset="1" stop-color="#008AF7"/>
</radialGradient>
<linearGradient id="paint5_linear" x1="612.143" y1="600.033" x2="444.361" y2="506.688" gradientUnits="userSpaceOnUse">
<stop stop-color="#008DF9"/>
<stop offset="1" stop-color="#00021A"/>
</linearGradient>
<radialGradient id="paint6_radial" cx="0" cy="0" r="1" gradientUnits="userSpaceOnUse" gradientTransform="translate(477.252 524.701) rotate(-150.911) scale(193 86.75)">
<stop stop-color="#00062D"/>
<stop offset="1" stop-color="#008AF7"/>
</radialGradient>
<linearGradient id="paint7_linear" x1="85.1753" y1="501.182" x2="234.893" y2="380.98" gradientUnits="userSpaceOnUse">
<stop stop-color="#008DF9"/>
<stop offset="1" stop-color="#00021A"/>
</linearGradient>
<radialGradient id="paint8_radial" cx="0" cy="0" r="1" gradientUnits="userSpaceOnUse" gradientTransform="translate(205.808 404.652) rotate(-38.7597) scale(193 86.75)">
<stop stop-color="#00062D"/>
<stop offset="1" stop-color="#008AF7"/>
</radialGradient>
<linearGradient id="paint9_linear" x1="1798" y1="593" x2="1798" y2="528" gradientUnits="userSpaceOnUse">
<stop stop-color="#00021A"/>
<stop offset="1" stop-color="#008DF9"/>
</linearGradient>
<linearGradient id="paint10_linear" x1="1311.5" y1="239.5" x2="1306.5" y2="431.5" gradientUnits="userSpaceOnUse">
<stop stop-color="#008DF9"/>
<stop offset="1" stop-color="#00021A"/>
</linearGradient>
</defs>
</svg>
